<?xml version="1.0" standalone="no"?>
<!DOCTYPE svg PUBLIC "-//W3C//DTD SVG 20010904//EN"
 "http://www.w3.org/TR/2001/REC-SVG-20010904/DTD/svg10.dtd">
<svg version="1.0" xmlns="http://www.w3.org/2000/svg"
 width="900.000000pt" height="900.000000pt" viewBox="0 0 900.000000 900.000000"
 preserveAspectRatio="xMidYMid meet">
<metadata>
Created by potrace 1.11, written by Peter Selinger 2001-2013
</metadata>
<g transform="translate(0.000000,900.000000) scale(0.100000,-0.100000)"
fill="#000000" stroke="none">
<path d="M1500 4476 l0 -2163 3000 0 3000 0 0 2163 0 2164 -1104 0 c-991 0
-1106 -2 -1120 -16 -13 -12 -16 -41 -16 -145 0 -79 -4 -129 -10 -129 -6 0 -10
-55 -10 -146 0 -94 4 -143 10 -139 7 4 10 -417 10 -1254 0 -834 -3 -1261 -10
-1261 -5 0 -10 -18 -10 -41 0 -24 4 -38 10 -34 6 4 10 -47 10 -145 l0 -151
-27 -24 -28 -24 -705 0 -705 0 -27 24 -28 24 0 151 c0 98 4 149 10 145 7 -4
10 54 10 167 0 115 -4 168 -10 158 -6 -10 -10 386 -10 1128 0 760 3 1141 10
1137 6 -4 10 45 10 139 0 91 -4 146 -10 146 -6 0 -10 50 -10 129 0 104 -3 133
-16 145 -14 14 -129 16 -1120 16 l-1104 0 0 -2164z m1462 1263 l3 -62 52 -13
c108 -28 175 -76 235 -168 38 -60 83 -180 72 -197 -3 -5 -41 -9 -84 -9 l-78 0
-17 51 c-26 77 -89 141 -162 163 l-23 7 0 -223 0 -224 103 -31 c123 -38 199
-88 250 -166 46 -69 61 -129 55 -227 -11 -184 -143 -324 -341 -362 l-66 -12
-3 -76 -3 -75 -55 0 -55 0 -3 76 -3 75 -62 13 c-89 18 -160 55 -221 115 -63
61 -102 134 -122 225 -22 107 -26 101 70 101 91 0 96 -3 96 -59 0 -42 48 -127
90 -161 36 -29 76 -49 128 -65 l22 -6 -2 240 -3 241 -99 34 c-133 46 -202 94
-240 168 -49 98 -47 246 6 352 49 97 165 182 283 206 l55 11 0 53 c0 29 3 56
7 59 3 4 30 7 59 7 l53 0 3 -61z"/>
<path d="M2797 5506 c-103 -37 -152 -103 -152 -206 0 -89 25 -129 107 -169 34
-17 67 -31 75 -31 10 0 13 41 13 210 0 116 -1 210 -2 210 -2 -1 -20 -7 -41
-14z"/>
<path d="M2960 4654 l0 -227 37 6 c126 21 204 124 189 251 -8 73 -43 119 -118
154 -35 17 -73 33 -85 37 l-23 6 0 -227z"/>
</g>
</svg>
